<svg xmlns="http://www.w3.org/2000/svg" width="320" height="480" viewBox="0 0 320 480" version="1.1"><path d="M 60.920 2.010 C 24.706 10.920, 0.014 42.539, 0.014 80 C 0.014 110.822, 16.982 138.268, 44.500 151.955 C 59.837 159.584, 63.340 159.985, 114.750 159.993 L 160 160 160 80 L 160 0 114.250 0.072 C 73.133 0.137, 67.732 0.334, 60.920 2.010" stroke="none" fill="#f24d18" fill-rule="evenodd"/><path d="M 60.920 322.010 C 36.743 327.959, 16.588 344.853, 6.462 367.658 C -5.417 394.414, -0.738 428.526, 17.848 450.656 C 34.066 469.966, 55.299 479.986, 80 479.986 C 117.740 479.986, 149.272 455.189, 158.041 418.614 C 159.819 411.197, 159.987 406.614, 159.993 365.250 L 160 320 114.250 320.072 C 73.133 320.137, 67.732 320.334, 60.920 322.010" stroke="none" fill="#02d084" fill-rule="evenodd"/><path d="M 220.920 162.010 C 196.801 167.944, 176.381 185.061, 166.343 207.759 C 157.917 226.812, 157.917 253.188, 166.343 272.241 C 174.216 290.044, 189.872 305.747, 207.539 313.559 C 222.249 320.065, 242.690 321.858, 258.614 318.041 C 295.114 309.290, 319.986 277.662, 319.986 240 C 319.986 207.919, 301.479 179.273, 272.461 166.441 C 257.829 159.969, 236.622 158.146, 220.920 162.010" stroke="none" fill="#13bdfe" fill-rule="evenodd"/><path d="M 60.920 162.010 C 24.706 170.920, 0.014 202.539, 0.014 240 C 0.014 270.822, 16.982 298.268, 44.500 311.955 C 59.837 319.584, 63.340 319.985, 114.750 319.993 L 160 320 160 240 L 160 160 114.250 160.072 C 73.133 160.137, 67.732 160.334, 60.920 162.010" stroke="none" fill="#a359ff" fill-rule="evenodd"/><path d="M 160 80 L 160 160 205.250 159.993 C 246.614 159.987, 251.197 159.819, 258.614 158.041 C 295.114 149.290, 319.986 117.662, 319.986 80 C 319.986 58.314, 312.976 40.668, 298 24.659 C 287.395 13.322, 274.137 5.681, 258.614 1.959 C 251.197 0.181, 246.614 0.013, 205.250 0.007 L 160 0 160 80" stroke="none" fill="#ff7362" fill-rule="evenodd"/><path d="" stroke="none" fill="#0bc8be" fill-rule="evenodd"/></svg>